<svg xmlns="http://www.w3.org/2000/svg" xml:space="preserve" width="64" height="64" style="clip-rule:evenodd;fill-rule:evenodd;stroke-linejoin:round;stroke-miterlimit:1.41421"><path d="M34.505 4.828c3.124-.7 6.348-.978 9.544-.743 4.831.343 9.607 1.914 13.57 4.723a24.8 24.8 0 0 1 5.403 5.207c-1.54-.915-3.209-1.598-4.914-2.138-3.602-1.124-7.468-1.465-11.193-.812-.675.124-1.399.2-1.964.623-.217.156-.398.418-.335.697.09.399.45.645.752.885 3.909 2.78 6.918 6.809 8.448 11.359a22.97 22.97 0 0 1 .376 13.472 22.8 22.8 0 0 1-2.08 5.056c-.206.399-.477.762-.649 1.18-.767 1.374-1.71 2.644-2.736 3.835-2.86 3.305-6.451 5.94-10.385 7.827-3.133 1.56-6.466 2.734-9.906 3.394-4.33.83-8.843.84-13.137-.2a26.4 26.4 0 0 1-6.874-2.703 24.8 24.8 0 0 1-7.447-6.506c1.977 1.16 4.142 1.98 6.36 2.542 3.182.796 6.53.971 9.767.407.64-.123 1.323-.194 1.876-.572.248-.16.472-.44.402-.752-.091-.399-.451-.643-.752-.882-3.907-2.784-6.916-6.81-8.447-11.359a22.9 22.9 0 0 1-1.17-8.653 22.86 22.86 0 0 1 3.345-10.684c.306-.66.708-1.27 1.112-1.873 2.995-4.334 7.23-7.738 11.95-10.038 2.88-1.457 5.931-2.588 9.084-3.292m-3.509 17.72c-2.738.274-5.305 1.82-6.844 4.097a9.5 9.5 0 0 0-1.592 6.387 9.47 9.47 0 0 0 2.605 5.557 9.5 9.5 0 0 0 5.503 2.81 9.5 9.5 0 0 0 6.31-1.315 9.55 9.55 0 0 0 3.882-4.666 9.54 9.54 0 0 0 .11-6.549 9.49 9.49 0 0 0-9.973-6.32z" style="fill:none;stroke:#2267a0;stroke-width:1.9569px;stroke-opacity:1"/></svg>